<svg width="125" height="125" fill="none" xmlns="http://www.w3.org/2000/svg"><path d="M108.333 87.5h-3.262a14.795 14.795 0 00-6.592 1.556 10.625 10.625 0 01-9.458 0 14.742 14.742 0 00-3.75-1.25l4.06-31.556h4.419c1.15 0 2.083-.933 2.083-2.083v-8.334c0-1.15-.933-2.083-2.083-2.083h-8.333V37.5c0-.553-.22-1.082-.61-1.473L75 26.221V19.75l3.158-2.525 5.394 10.79 3.73-1.863-5.797-11.59 2.578-2.062h7.604c1.15 0 2.083-.933 2.083-2.083V2.083C93.75.933 92.817 0 91.667 0H70.833c-10.35.013-18.737 8.4-18.75 18.75 0 1.15.933 2.083 2.084 2.083h4.166v5.388l-5.64 5.64c-.39.39-.61.92-.61 1.472V43.75h-4.166V27.083a2.059 2.059 0 00-.153-.752 2.16 2.16 0 00-.129-.235 2.325 2.325 0 00-.175-.315l-7.877-9.843V2.082A2.083 2.083 0 0037.5 0H25c-1.15 0-2.083.933-2.083 2.083v13.854l-7.878 9.844c-.066.1-.124.206-.175.315a2.16 2.16 0 00-.129.235c-.097.24-.149.494-.152.752V43.75H6.25c-1.15 0-2.083.933-2.083 2.083v8.334c0 1.15.932 2.083 2.083 2.083h4.419l8.098 62.767a2.082 2.082 0 002.066 1.816h49.042A12.464 12.464 0 0079.167 125h3.262a14.8 14.8 0 006.592-1.556 10.623 10.623 0 019.458 0 14.803 14.803 0 006.592 1.556h3.262c6.901-.007 12.494-5.599 12.5-12.5V100c-.006-6.9-5.599-12.493-12.5-12.5zM85.417 4.167h4.166v4.166h-4.166V4.167zm6.25 43.75v4.166H62.5v-4.166h29.167zm-35.27-31.25a14.606 14.606 0 0114.436-12.5H81.25v5.25l-9.065 7.25H56.398zm14.436 4.166V25H62.5v-4.167h8.333zM56.25 34.196l5.03-5.03h10.774l9.196 9.196v5.388h-25v-9.554zm-2.083 13.72h4.166V62.5a2.083 2.083 0 001.152 1.875l12.5 6.25c.61.3 1.072.835 1.282 1.481a2.68 2.68 0 01-.209 2.084 2.433 2.433 0 01-3.263 1.092l-.005-.003-8.459-4.229a2.083 2.083 0 00-2.998 1.867V93.75a4.167 4.167 0 01-4.166 4.167v-18.75H50v18.75h-4.167v-18.75h-4.166v18.75H37.5v-18.75h-4.167v18.75a4.167 4.167 0 01-4.166-4.167V47.917h25zM27.083 4.167h8.334v10.417h-8.334V4.167zM26 18.75h10.5l5 6.25H21l5-6.25zm-7.25 10.417h25V43.75h-25V29.167zM8.333 52.083v-4.166H25v4.166H8.333zM66.667 100v12.5c.003 1.42.25 2.829.729 4.167H22.665L14.869 56.25H25v37.5a8.333 8.333 0 008.333 8.333h20.834A8.333 8.333 0 0062.5 93.75V76.287l5.442 2.721a6.64 6.64 0 008.892-3.015l.02-.04c.807-1.6.944-3.456.381-5.157a6.666 6.666 0 00-3.375-3.904l-11.36-5.68V56.25h22.631L81.098 87.5h-1.931c-6.901.007-12.494 5.6-12.5 12.5zm50 12.5a8.333 8.333 0 01-8.334 8.333h-3.262a10.622 10.622 0 01-4.727-1.116 14.818 14.818 0 00-13.188 0 10.623 10.623 0 01-4.727 1.116h-3.262a8.333 8.333 0 01-8.334-8.333v-3.208a12.437 12.437 0 008.334 3.208h3.262a14.8 14.8 0 006.592-1.556 10.623 10.623 0 019.458 0 14.803 14.803 0 006.592 1.556h3.262a12.44 12.44 0 008.334-3.208v3.208zm-8.334-4.167h-3.262a10.622 10.622 0 01-4.727-1.116 14.818 14.818 0 00-13.188 0 10.623 10.623 0 01-4.727 1.116h-3.262a8.333 8.333 0 010-16.666h3.262c1.641.002 3.259.384 4.727 1.116a14.827 14.827 0 0013.188 0 10.623 10.623 0 014.727-1.116h3.262a8.334 8.334 0 110 16.666z" fill="#000"/><path d="M110.417 95.833h-4.167V100h4.167v-4.167zm-20.834 0h-4.166V100h4.166v-4.167zm-8.333 2.083h-4.167v4.167h4.167v-4.166zm20.833 0h-4.166v4.167h4.166v-4.166z" fill="#000"/></svg>