<svg width="125" height="125" fill="none" xmlns="http://www.w3.org/2000/svg"><g clip-path="url(#clip0)" fill="#000"><path d="M119.041 73.216h-1.871v-16.85a7.913 7.913 0 00-3.355-6.463v-2.295a6.042 6.042 0 00-6.035-6.035h-1.397l5.344-7.842a5.776 5.776 0 00-1.519-8.016L73.946 1.005a5.727 5.727 0 00-4.322-.901 5.73 5.73 0 00-3.694 2.42L34.631 48.45h-8.71l2.102-21.272a.63.63 0 01.396-.53 13.54 13.54 0 006.607-5.367.627.627 0 01.591-.278l13.661 1.35a1.782 1.782 0 00.35-3.545l-13.66-1.35a4.169 4.169 0 00-3.948 1.91 9.955 9.955 0 01-4.857 3.947 4.163 4.163 0 00-2.686 3.512L22.343 48.45H20.07l3.323-33.643c.12-1.211 1.2-2.1 2.413-1.98l27.606 2.728a1.78 1.78 0 10.35-3.545L26.157 9.283a5.776 5.776 0 00-6.308 5.174l-2.68 27.116h-4.56a6.042 6.042 0 00-6.036 6.035v1.565c-2.722 1.254-4.618 4.006-4.618 7.194v60.716c0 4.366 3.551 7.917 7.917 7.917h99.381c4.366 0 7.917-3.551 7.917-7.917v-16.849h1.871a4.008 4.008 0 004.004-4.004V77.22a4.008 4.008 0 00-4.004-4.004zm-11.261-28.08a2.475 2.475 0 012.472 2.473v.907a7.926 7.926 0 00-.999-.065h-7.557l2.259-3.315h3.825zM68.874 4.528a2.193 2.193 0 011.828-.965c.439 0 .867.132 1.238.384l36.262 24.712a2.209 2.209 0 01.581 3.066L97.385 48.45H94.65l5.588-8.2a4.164 4.164 0 00.195-4.417 9.952 9.952 0 01-1.194-6.144 4.166 4.166 0 00-1.802-3.998L78.64 12.881a4.166 4.166 0 00-4.38-.215 9.957 9.957 0 01-6.154 1.137 4.216 4.216 0 00-4.04 1.796L41.677 48.45h-2.735L68.874 4.528zm.784 30.247c-7.756 0-14.124 6.048-14.642 13.675h-9.029l21.02-30.845h.001a.636.636 0 01.602-.274c2.866.4 5.838-.148 8.37-1.546.2-.11.456-.095.653.04l18.798 12.81a.63.63 0 01.276.593 13.538 13.538 0 001.623 8.355c.114.203.1.462-.035.661L90.34 48.45h-6.038c-.52-7.627-6.887-13.675-14.644-13.675zM80.73 48.45H58.587c.51-5.662 5.28-10.114 11.071-10.114 5.792 0 10.561 4.452 11.072 10.114zm-70.595-.843a2.476 2.476 0 012.473-2.473h4.21l-.327 3.315h-6.356v-.842zm-4.618 8.759a4.36 4.36 0 014.355-4.354h99.381a4.36 4.36 0 014.355 4.354v4.942H5.518v-4.942zm108.091 60.716a4.36 4.36 0 01-4.355 4.355H9.872a4.36 4.36 0 01-4.355-4.355v-4.942h9.605a1.78 1.78 0 100-3.562H5.517V64.872h108.091v8.344H96.673c-5.337 0-9.959 3.11-12.152 7.613l-.023.045c-.019.038-.035.078-.053.116a13.43 13.43 0 00-.673 1.723l-.002.005a13.464 13.464 0 00-.607 4.007c0 7.45 6.06 13.509 13.51 13.509h16.934v8.345h-87.08a1.78 1.78 0 100 3.562h87.081v4.942zm5.875-20.853a.443.443 0 01-.442.442H96.673c-3.77 0-7.058-2.11-8.745-5.21a9.821 9.821 0 01-.598-1.32 9.897 9.897 0 01-.604-3.417 9.904 9.904 0 011.202-4.737c1.687-3.1 4.974-5.21 8.745-5.21h22.368c.243 0 .442.199.442.442v19.01z"/><path d="M97.09 79.499c-3.985 0-7.227 3.242-7.227 7.226 0 3.985 3.242 7.227 7.227 7.227 3.985 0 7.227-3.242 7.227-7.227 0-3.984-3.242-7.226-7.227-7.226zm0 10.89a3.668 3.668 0 01-3.664-3.664 3.669 3.669 0 013.664-3.664 3.668 3.668 0 013.664 3.664 3.668 3.668 0 01-3.664 3.664z"/></g><defs><clipPath id="clip0"><path fill="#fff" d="M0 0h125v125H0z"/></clipPath></defs></svg>