<svg width="125" height="125" fill="none" xmlns="http://www.w3.org/2000/svg"><path d="M84.037 67.567l-10.64-4.729a2.085 2.085 0 01-1.237-1.903v-2.922c3.574-2.848 5.871-7.234 5.871-12.148v-4.113a3.794 3.794 0 001.957-3.316v-.4c0-8.563-6.967-15.53-15.53-15.53h-3.914c-8.564 0-15.531 6.967-15.531 15.53v3.622c0 1.238.533 2.36 1.461 3.077.158.121.323.228.496.32v.81c0 4.914 2.297 9.3 5.871 12.147v2.922c0 .823-.485 1.57-1.237 1.904l-10.64 4.729a9.668 9.668 0 00-5.736 8.827v24.268a1.831 1.831 0 003.662 0V76.394c0-.212.015-.422.037-.63l4.903 4.903a4.014 4.014 0 011.183 2.857v17.138a1.831 1.831 0 103.662 0V83.524a7.651 7.651 0 00-2.256-5.447l-5.845-5.845a5.98 5.98 0 011.878-1.319l10.46-4.649 7.758 7.758v26.64a1.831 1.831 0 003.662 0v-26.64l7.758-7.758 10.46 4.65a5.98 5.98 0 011.877 1.319l-5.845 5.844a7.651 7.651 0 00-2.256 5.447v17.138a1.831 1.831 0 103.662 0V83.524c0-1.08.42-2.094 1.184-2.857l4.902-4.903c.022.208.038.418.038.63v24.268a1.831 1.831 0 003.662 0V76.394a9.67 9.67 0 00-5.737-8.827zM62.5 70.674l-6.807-6.807c.518-.87.81-1.878.81-2.932v-.745a15.445 15.445 0 005.997 1.205c2.125 0 4.151-.43 5.997-1.205v.745a5.73 5.73 0 00.81 2.932L62.5 70.674zm0-12.941c-6.544 0-11.868-5.324-11.868-11.868v-.824c1.143-.453 2.258-1.173 3.325-2.158a1.831 1.831 0 00-2.483-2.692c-.916.846-1.831 1.392-2.72 1.624a.3.3 0 01-.048.009.371.371 0 01-.031-.166v-3.621c0-6.545 5.324-11.869 11.868-11.869h3.914c6.545 0 11.869 5.324 11.869 11.869v.399c0 .06-.036.11-.083.12-10.964 2.166-16.464-1.916-18.32-3.771a1.83 1.83 0 10-2.589 2.59c5.686 5.685 13.983 5.788 19.035 5.18v3.31c0 6.544-5.324 11.868-11.869 11.868zm-29.482-.125v-3.915c0-4.777-2.482-8.982-6.223-11.402.231-.74.352-1.517.352-2.298 0-4.247-3.455-7.702-7.702-7.702-4.248 0-7.703 3.456-7.703 7.702 0 .79.12 1.56.351 2.298-3.74 2.42-6.222 6.625-6.222 11.402v3.914c0 4.626 2.327 8.716 5.871 11.168V72.8c0 .794-.441 1.508-1.151 1.864L4.258 77.83A7.661 7.661 0 000 84.721v15.942a1.831 1.831 0 003.662 0v-15.15l2.983 2.982a4.015 4.015 0 011.183 2.857v9.311a1.831 1.831 0 003.663 0v-9.31a7.653 7.653 0 00-2.256-5.447l-4.152-4.152c-.02-.02-.041-.037-.062-.056.26-.23.553-.43.875-.591l6.333-3.166c.324-.163.626-.355.908-.567l4.477 4.477v18.812a1.831 1.831 0 003.662 0V81.85l4.477-4.477c.282.213.583.405.908.567l1.746.874a1.831 1.831 0 001.638-3.275l-1.746-.874a2.072 2.072 0 01-1.152-1.863v-4.027c3.544-2.451 5.871-6.542 5.871-11.167zM19.445 35.953a4.045 4.045 0 013.976 4.762 13.525 13.525 0 00-3.976-.596 13.52 13.52 0 00-3.97.594 4.06 4.06 0 01-.07-.72 4.044 4.044 0 014.04-4.04zm0 7.829c5.465 0 9.911 4.446 9.911 9.911v.664c-7.623 2.334-12.167-3.465-12.36-3.72a1.832 1.832 0 00-2.76-.196c-1.748 1.748-3.46 2.591-4.696 2.998.135-5.348 4.525-9.657 9.905-9.657zm0 34.72l-4.232-4.23a5.8 5.8 0 00.192-1.47v-2.236c1.276.4 2.633.614 4.04.614 1.406 0 2.763-.215 4.04-.614v2.236c0 .505.067.997.19 1.47l-4.23 4.23zm0-10.984c-5.466 0-9.912-4.446-9.912-9.911v-.38c1.46-.335 3.626-1.114 5.884-2.93a16.56 16.56 0 003.396 2.471c1.72.938 4.096 1.806 6.997 1.806a15.36 15.36 0 003.53-.422c-.284 5.212-4.613 9.366-9.895 9.366zm101.298 6.399l-10.248-5.124a2.072 2.072 0 01-1.151-1.863v-2.595a11.588 11.588 0 003.914-8.685v-2.084l.126.001c1.011 0 1.831-.82 1.831-1.83v-3.915c0-6.405-5.211-11.616-11.616-11.616h-3.915c-6.405 0-11.616 5.21-11.616 11.616v3.914a1.831 1.831 0 001.957 1.828v2.086a11.59 11.59 0 003.914 8.686v2.595a2.07 2.07 0 01-1.151 1.863 1.83 1.83 0 101.638 3.275 5.83 5.83 0 00.907-.567l4.478 4.478v24.683a1.831 1.831 0 003.662 0V75.979l4.476-4.477c.282.213.584.405.908.567l9.916 4.958-3.007 3.007a7.65 7.65 0 00-2.256 5.447v15.181a1.832 1.832 0 103.662 0V85.481c0-1.08.42-2.094 1.183-2.857l2.849-2.849c.087.331.134.677.134 1.031v19.856a1.832 1.832 0 103.662 0V80.806a7.66 7.66 0 00-4.257-6.889zM91.73 49.528v-1.706c0-4.386 3.569-7.955 7.954-7.955h3.915c4.386 0 7.954 3.569 7.954 7.955v2.034c-7.96-.43-12.763-3.527-12.81-3.558a1.826 1.826 0 00-2.31.23c-1.752 1.751-3.469 2.594-4.703 3zm9.912 23.103L97.41 68.4a5.8 5.8 0 00.192-1.47v-.39c1.258.47 2.619.726 4.04.726 1.42 0 2.781-.257 4.04-.725v.39c0 .505.067.997.191 1.469l-4.231 4.231zm0-9.026c-4.386 0-7.955-3.569-7.955-7.955v-2.952c1.283-.512 2.777-1.327 4.297-2.622 1.923 1 5.946 2.73 11.612 3.3v2.274c0 4.386-3.568 7.955-7.954 7.955z" fill="#000"/></svg>