<svg width="125" height="125" fill="none" xmlns="http://www.w3.org/2000/svg"><g clip-path="url(#clip0)" fill="#000"><path d="M103.732 85.487V75.069a1.835 1.835 0 00-3.67 0v10.418c-10.06.929-17.966 9.413-17.966 19.712 0 6.65 3.298 12.539 8.34 16.132h-17.67c-4.64 0-9-2.048-11.963-5.618a15.5 15.5 0 01-3.318-12.793l3.465-18.49h19.335a6.735 6.735 0 006.727-6.726v-24.27a33.449 33.449 0 017.7-.898c2.95 0 5.35 2.4 5.35 5.35v9.844a1.835 1.835 0 003.67 0v-9.844c0-3.675-2.21-6.841-5.37-8.246v-9.73a1.835 1.835 0 00-1.835-1.835h-.028V13.42C96.499 6.019 90.479 0 83.08 0a13.434 13.434 0 00-12.252 7.946l-10.43 23.35a1.835 1.835 0 003.35 1.497l10.43-23.35a9.76 9.76 0 018.902-5.774c5.376 0 9.75 4.374 9.75 9.75v24.655h-3.67V13.42a6.087 6.087 0 00-6.08-6.08 6.087 6.087 0 00-5.552 3.6l-41.897 93.798h-4.018l29.142-65.242a1.835 1.835 0 10-3.35-1.497l-29.81 66.739h-.99c-2.36 0-4.28 1.92-4.28 4.281v3.834h-6.227a13.16 13.16 0 00-12.737 9.852A1.836 1.836 0 005.137 125h28.852a1.835 1.835 0 000-3.67H7.842a9.493 9.493 0 018.256-4.809h31.106a5.764 5.764 0 015.579 4.315l.128.494H41.328a1.835 1.835 0 000 3.67h13.955a1.835 1.835 0 001.776-2.296l-.725-2.79a9.434 9.434 0 00-9.13-7.062h-4.042v-3.835a4.284 4.284 0 00-3.543-4.212l41.26-92.37a2.414 2.414 0 012.201-1.427c1.33 0 2.41 1.081 2.41 2.41v24.657h-.313a1.835 1.835 0 00-1.835 1.834v10.74c-12.69 4.085-22.575 14.84-25.139 28.52l-4.325 23.075a19.163 19.163 0 004.101 15.813A19.164 19.164 0 0072.766 125h29.131c10.918 0 19.801-8.883 19.801-19.801 0-10.3-7.906-18.783-17.966-19.712zm-77.739 27.365v-3.834c0-.337.275-.612.612-.612H38.88c.337 0 .612.275.612.612v3.834h-13.5zm61.019-71.108h7.68v7.123a37.15 37.15 0 00-7.68.806v-7.93zm-3.67 12.781v23.179a3.061 3.061 0 01-3.057 3.057H61.638l.172-.917c2.234-11.92 10.64-21.378 21.532-25.319zm18.555 66.806c-8.895 0-16.131-7.237-16.131-16.132 0-8.894 7.236-16.13 16.131-16.13s16.131 7.236 16.131 16.13c0 8.895-7.236 16.132-16.131 16.132z"/><path d="M101.897 96.959c-4.544 0-8.24 3.697-8.24 8.24 0 4.544 3.696 8.241 8.24 8.241 4.544 0 8.24-3.697 8.24-8.241 0-4.543-3.696-8.24-8.24-8.24zm0 12.812a4.577 4.577 0 01-4.571-4.572c0-2.52 2.05-4.571 4.571-4.571a4.577 4.577 0 014.571 4.571 4.577 4.577 0 01-4.571 4.572z"/></g><defs><clipPath id="clip0"><path fill="#fff" d="M0 0h125v125H0z"/></clipPath></defs></svg>