<svg width="142" height="29" fill="none" xmlns="http://www.w3.org/2000/svg"><g clip-path="url(#clip0)" fill="#2F4B6E"><path d="M28.415 15.957c-.07-.141-.247-.212-.388-.247-.813 0-7.811-.283-7.811-8.412a.468.468 0 00-.46-.46.468.468 0 00-.459.46c0 8.13-6.998 8.412-7.775 8.412a.402.402 0 00-.283.106c-.07.035-.106.106-.142.141a.525.525 0 000 .46.49.49 0 00.425.247h.035c.813 0 7.775.283 7.775 8.412 0 .247.212.459.46.459.247 0 .46-.212.46-.46 0-8.093 6.962-8.41 7.775-8.41.176 0 .318-.107.424-.248a.435.435 0 00-.036-.46zm-8.659 5.655c-1.024-3.357-3.534-4.807-5.513-5.443 1.98-.636 4.489-2.085 5.513-5.443 1.025 3.358 3.535 4.807 5.514 5.443-1.98.636-4.489 2.085-5.514 5.443zM13.925 6.768c.247 0 .46-.212.46-.495a.468.468 0 00-.46-.46c-.424 0-4.241-.14-4.241-4.594a.468.468 0 00-.46-.46.468.468 0 00-.46.46c0 4.454-3.816 4.595-4.24 4.595h-.035c-.248.035-.425.212-.425.46 0 .247.212.459.46.459.46 0 4.24.141 4.24 4.594 0 .248.213.46.46.46.212.035.425-.177.425-.424 0-4.453 3.817-4.595 4.24-4.595h.036zM9.189 8.783C8.624 7.44 7.6 6.697 6.644 6.273 7.67 5.85 8.624 5.036 9.19 3.764c.566 1.343 1.59 2.085 2.545 2.51-1.025.423-1.98 1.236-2.545 2.509zm.671 12.97c-.424 0-4.24-.141-4.24-4.594a.468.468 0 00-.46-.46.468.468 0 00-.46.46c0 4.453-3.816 4.594-4.24 4.594H.423c-.247.036-.424.212-.424.46 0 .247.212.46.46.46.459 0 4.24.14 4.24 4.594 0 .247.213.46.46.46.212.07.424-.142.424-.425 0-4.453 3.817-4.594 4.241-4.594h.036c.247 0 .459-.212.459-.495a.468.468 0 00-.46-.46zm-4.735 3.005c-.601-1.343-1.59-2.086-2.545-2.51 1.025-.424 1.98-1.237 2.545-2.51.565 1.344 1.59 2.086 2.544 2.51-1.025.424-1.979 1.237-2.544 2.51z"/></g><path d="M38.088 6.724c2.544 0 4.4.488 5.568 1.464 1.168.976 1.752 2.48 1.752 4.512 0 2.032-.6 3.52-1.8 4.464-1.184.944-3.008 1.416-5.472 1.416H35.16v4.92h-2.832V6.724h5.76zm.36 9.288c1.568 0 2.632-.296 3.192-.888.576-.608.864-1.488.864-2.64 0-1.168-.36-1.992-1.08-2.472-.72-.48-1.848-.72-3.384-.72h-2.88v6.72h3.288zm22.07-9.288v2.664h-8.952v4.44h8.04v2.52h-8.04v4.488h9.24V23.5H48.734V6.724h11.784zm17.311 5.448c0 2.768-1.208 4.512-3.624 5.232l4.392 6.096h-3.6l-4.008-5.64h-3.72v5.64h-2.832V6.724h6.24c2.56 0 4.392.432 5.496 1.296 1.104.864 1.656 2.248 1.656 4.152zm-7.032 3.12c1.6 0 2.688-.248 3.264-.744.576-.496.864-1.288.864-2.376 0-1.104-.296-1.856-.888-2.256-.592-.416-1.648-.624-3.168-.624h-3.6v6h3.528zM84.73 9.364v4.608h7.44v2.616h-7.44V23.5h-2.832V6.724h11.184l-.024 2.64H84.73zm23.437-2.64v2.664h-8.952v4.44h8.04v2.52h-8.04v4.488h9.24V23.5H96.383V6.724h11.784zm3.919 0h2.832v8.184l7.68-8.184h3.6l-6.744 7.344 6.84 9.432h-3.36l-5.568-7.344-2.448 2.64V23.5h-2.832V6.724zm23.234 2.592V23.5h-2.832V9.316H127.4V6.724h13.008v2.592h-5.088z" fill="#2F4B6E"/><defs><clipPath id="clip0"><path fill="#fff" d="M0 0h28.5v28.5H0z"/></clipPath></defs></svg>